<?xml version="1.0" encoding="utf-8"?>
<!-- Generator: Adobe Illustrator 22.0.1, SVG Export Plug-In . SVG Version: 6.00 Build 0)  -->
<svg version="1.1" xmlns="http://www.w3.org/2000/svg" xmlns:xlink="http://www.w3.org/1999/xlink" x="0px" y="0px"
	 viewBox="-178.9 355.4 746.7 100.4" style="enable-background:new -178.9 355.4 746.7 100.4;" xml:space="preserve">
<style type="text/css">
	.st0{display:none;}
	.st1{display:inline;fill:#404040;}
	.st2{fill:#008080;}
	.st3{fill:#FFFFFF;}
	.st4{fill:#2DB4B4;}
	.st5{fill:#ECFAFA;}
	.st6{fill:none;stroke:#008080;stroke-width:4.1478;}
</style>
<g id="Layer_3" class="st0">
	<rect x="-225" y="327.2" class="st1" width="827.4" height="146.8"/>
</g>
<g id="Layer_2">
</g>
<g id="svg4300" inkscape:version="0.91 r13725" sodipodi:docname="logo-full.svg" xmlns:cc="http://creativecommons.org/ns#" xmlns:dc="http://purl.org/dc/elements/1.1/" xmlns:inkscape="http://www.inkscape.org/namespaces/inkscape" xmlns:rdf="http://www.w3.org/1999/02/22-rdf-syntax-ns#" xmlns:sodipodi="http://sodipodi.sourceforge.net/DTD/sodipodi-0.dtd" xmlns:svg="http://www.w3.org/2000/svg">
	<g>
		<path class="st2" d="M-144.2,363.7l-34.3,76.6h11.1l7.8-17.7h39.9l7.9,17.7h11l-34.3-76.6H-144.2z M-155.5,412.8l15.8-35.7
			l15.8,35.7H-155.5z"/>
		<path class="st2" d="M-53.4,410.7c0,14.3-10.3,20.8-19.8,20.8c0,0,0,0,0,0c-5.2,0-10-1.8-13.6-5.2c-4-3.8-6.2-9.2-6.2-15.7v-47
			H-103v47c0,20.1,15,30.6,29.8,30.6c0,0,0,0,0,0c7.8,0,15.1-2.7,20.5-7.7c6.1-5.6,9.4-13.5,9.4-22.9v-47h-10.1V410.7z"/>
		<polygon class="st2" points="-38.3,373.3 -12.3,373.3 -12.3,440.2 -2.1,440.2 -2.1,373.3 23.9,373.3 23.9,363.8 -38.3,363.8 		"/>
		<polygon class="st2" points="81.1,397.9 39.9,397.9 39.9,363.7 29.7,363.7 29.7,440.2 39.9,440.2 39.9,407.6 81.1,407.6 
			81.1,440.2 91.3,440.2 91.3,363.7 81.1,363.7 		"/>
		<path class="st3" d="M160.4,361.2l-37,82.6h21.3l6.7-14.6h37.3l6.5,14.6h21.4l-37-82.6H160.4z M159.4,410.5l10.6-24.3l10.6,24.3
			H159.4z"/>
		<path class="st3" d="M286.7,389.4c0-13.5-9.5-28.1-30.4-28.2c-6.1,0-12.3,0-18.4-0.1c-6.2,0-12.3-0.1-18.5-0.1h-2.5v82.7h19.6
			v-25.9h10.4l22.6,25.9h21v-4.4l-21.4-24.2C280.3,411.4,286.7,402.2,286.7,389.4z M256.2,399.6h-19.8v-19.8h19.8
			c8,0,10.8,5.3,10.8,9.9C267,394.5,264.2,399.6,256.2,399.6z"/>
		<polygon class="st3" points="335.4,392.9 312.3,361.3 291.7,361.3 291.7,443.9 311.4,443.9 311.4,392.6 332.3,421.3 337.7,421.3 
			359.2,392.6 359.2,443.9 378.9,443.9 378.9,361.3 358.4,361.3 		"/>
		<path class="st3" d="M545.6,415.1c11.2-3.8,17.6-13,17.6-25.8c0-13.5-9.5-28.1-30.4-28.2c-6.1,0-12.3,0-18.4-0.1
			c-6.2,0-12.3-0.1-18.5-0.1h-2.5v82.7H513v-25.9h10.4l22.6,25.9h21v-4.4L545.6,415.1z M532.8,399.6H513v-19.8h19.8
			c8,0,10.8,5.3,10.8,9.9C543.6,394.5,540.7,399.6,532.8,399.6z"/>
	</g>
	
		<sodipodi:namedview  bordercolor="#666666" borderopacity="1.0" fit-margin-bottom="0" fit-margin-left="0" fit-margin-right="0" fit-margin-top="0" id="base" inkscape:current-layer="layer1" inkscape:cx="814.88276" inkscape:cy="53.167096" inkscape:document-units="px" inkscape:pageopacity="0.0" inkscape:pageshadow="2" inkscape:window-height="801" inkscape:window-maximized="1" inkscape:window-width="1536" inkscape:window-x="-8" inkscape:window-y="-8" inkscape:zoom="0.49497475" pagecolor="#ffffff" showgrid="false">
		</sodipodi:namedview>
	<g>
		<g>
			<path class="st4" d="M396.5,372l1.3,47.4c0.3,11,18.8,28.6,39.1,33.6v-94.7L396.5,372z"/>
			<path class="st5" d="M477.3,372l-40.4-13.8v94.7c0.2,0,0.4,0.1,0.6,0.1c21.2-5.2,40.3-24.6,40.2-36.1L477.3,372z"/>
		</g>
		<g id="text7038" inkscape:export-xdpi="300.117" inkscape:export-ydpi="300.117">
			<path id="path6078" class="st2" d="M-104.4,437.9l-32.3-71.9h-6.1l-32.3,71.9h6l7.8-17.7h43l7.9,17.7H-104.4z M-159,415.1
				l19.3-43.8l19.3,43.8H-159L-159,415.1z"/>
			<path id="path6080" class="st2" d="M-51.1,366v44.7c0,30.8-44.2,30.9-44.2,0V366h-5.4v44.7c0,37.7,55.1,37.6,55.1,0V366
				L-51.1,366L-51.1,366z"/>
			<path id="path6082" class="st2" d="M-10,437.9h5.5V371h26v-4.9H-36v4.9h26L-10,437.9L-10,437.9z"/>
			<path id="path6084" class="st2" d="M89,437.9V366h-5.5v34.2H37.6V366h-5.5v71.9h5.5v-32.7h45.8v32.7H89z"/>
			<path id="path6086" class="st2" d="M196.8,441.3h16L178,363.7h-16l-34.8,77.6h15.9l6.7-14.6h40.6L196.8,441.3L196.8,441.3z
				 M184.4,413h-28.8l14.4-33L184.4,413z"/>
			<path id="path6088" class="st2" d="M288,440.3l-23.5-26.5c14.7-3,19.6-13.7,19.6-24.4c0-13.4-9.6-25.6-27.9-25.7
				c-12.3,0-24.6-0.1-36.9-0.1v77.7H234v-25.9H248l22.6,25.9H288L288,440.3L288,440.3z M256.2,377.3c9.2,0,13.3,6.2,13.3,12.4
				s-4,12.4-13.3,12.4H234v-24.8H256.2z"/>
			<path id="path6090" class="st2" d="M361.7,441.4h14.6v-77.6h-16.7l-24.3,33.4l-24.3-33.4h-16.8v77.6h14.6V385l24.7,33.8h2.9
				l25.3-33.7L361.7,441.4L361.7,441.4z"/>
			<path id="path6092" class="st2" d="M564.6,440.3l-23.5-26.5c14.7-3,19.6-13.7,19.6-24.4c0-13.4-9.6-25.6-27.9-25.7
				c-12.3,0-24.6-0.1-36.9-0.1v77.7h14.6v-25.9h14.1l22.6,25.9h17.4V440.3L564.6,440.3z M532.8,377.3c9.2,0,13.3,6.2,13.3,12.4
				s-4,12.4-13.3,12.4h-22.3v-24.8H532.8z"/>
		</g>
		
			<path id="path7052" inkscape:connector-curvature="0" inkscape:export-xdpi="300.117" inkscape:export-ydpi="300.117" sodipodi:nodetypes="cccscsc" class="st6" d="
			M477.3,372l-40.4-13.8L396.5,372l1.3,47.4c0.3,11.1,19.1,29,39.7,33.7c21.2-5.2,40.3-24.6,40.2-36.1L477.3,372z"/>
		<path id="circle7054" class="st2" d="M447.6,394c0,6.4-5.2,11.6-11.6,11.6h0c-6.4,0-11.6-5.2-11.6-11.6l0,0
			c0-6.4,5.2-11.6,11.6-11.6C442.4,382.4,447.6,387.6,447.6,394z"/>
		<path id="path7056" class="st2" d="M422.4,417.3c0-7.6,6.1-13.7,13.7-13.7s13.7,6.1,13.7,13.7H436H422.4z"/>
	</g>
</g>
</svg>
